# xmcd
#
# Track frame offsets:
#	150
#	13563
#	33155
#	49438
#	65982
#	84877
#	98439
#	113596
#	122129
#	137037
#	154992
#	171906
#	186830
#	205149
#	219011
#	234534
#	250792
#	255083
#
# Disc length: 3616 seconds
#
# Revision: 1
# Processed by: cddbd v1.5.2PL0 Copyright (c) Steve Scherf et al.
# Submitted via: audiograbber 1.83.01
#
DISCID=e90e1e12
DTITLE=Various Artist - Promo Only Country Radio May 2005
DYEAR=2005
DGENRE=Country
TTITLE0=Alan Jackson - The Talkin' Song Repair Blues
TTITLE1=Rascal Flatts - Fast Cars And Freedom
TTITLE2=Jason Aldean - Hicktown
TTITLE3=Sugarland - Something More
TTITLE4=Josh Gracin - Stay With Me (Brass Bed)
TTITLE5=Amanda Wilkinson - No More Me And You
TTITLE6=Cledus T. Judd - Paycheck Woman
TTITLE7=Mark Chesnutt - A Hard Secret To Keep
TTITLE8=Steve Holy - Go Home
TTITLE9=Miranda Lambert - Bring Me Down
TTITLE10=Shooter Jennings - 4th Of July
TTITLE11=Cowboy Troy - I Play Chicken With The Train
TTITLE12=Rebecca Lynn Howard - No One'll Ever Love Me
TTITLE13=Carolina Rain - Louisiana Love
TTITLE14=Cowboy Crush - Nobody Ever Died Of A Broken Heart
TTITLE15=Roxie Dean - A Solider's Wife
TTITLE16=The Neville Brothers - Walkin' In The Shadow Of Life
TTITLE17=Brittany Wells - Somebody's Somebody
EXTD=
EXTT0=
EXTT1=
EXTT2=
EXTT3=
EXTT4=
EXTT5=
EXTT6=
EXTT7=
EXTT8=
EXTT9=
EXTT10=
EXTT11=
EXTT12=
EXTT13=
EXTT14=
EXTT15=
EXTT16=
EXTT17=
PLAYORDER=
